mtllib materials.mtl
v 0.568074 -0.3968482 0.4979192
v 0.5590277 -0.3153093 0.4053563
v 0.5554613 -0.3754525 0.3527246
v 0.5645076 -0.4569914 0.4452877
v -0.4674673 -0.4121845 0.5856135
v -0.4710338 -0.4723277 0.5329818
v -0.4800799 -0.3907888 0.4404187
v -0.4765135 -0.3306456 0.4930503
v 0.6739306 -1.351011 1.581089
v 0.6648843 -1.269472 1.488526
v 0.6613181 -1.329616 1.435894
v 0.6703641 -1.411155 1.528457
v -0.3616109 -1.366347 1.668782
v -0.3651773 -1.426491 1.61615
v -0.3742232 -1.344952 1.523587
v -0.370657 -1.284809 1.576219
v 0.5248221 0.8012006 -0.8682655
v 0.5209837 0.7436101 -0.9236604
v 0.4410977 0.7450757 -0.9196488
v 0.4449362 0.8026662 -0.8642539
v 0.5229492 0.856709 -0.9258443
v 0.4430633 0.8581746 -0.9218327
v 0.4392248 0.8005841 -0.9772276
v 0.5191108 0.7991185 -0.9812392
v 0.5195336 0.04068041 0.001238585
v 0.5104873 0.1222193 -0.09132421
v 0.5069211 0.06207609 -0.1439561
v 0.5159674 -0.01946282 -0.05139303
v -0.5160078 0.0253427 0.08893132
v -0.5195742 -0.03480053 0.03629947
v -0.5286202 0.04673862 -0.05626333
v -0.525054 0.1068816 -0.003631592
v -0.691605 0.8446343 -0.829137
v -0.6117191 0.8431687 -0.8331486
v -0.624026 0.6585054 -1.010772
v -0.703912 0.6599708 -1.00676
v -0.6934782 0.9001427 -0.8867158
v -0.7057851 0.7154794 -1.064339
v -0.6258991 0.7140141 -1.06835
v -0.6135923 0.8986773 -0.8907274
v 0.4709938 0.4782088 -0.4954425
v 0.4619477 0.5597479 -0.5880052
v 0.4583812 0.4996049 -0.640637
v 0.4674274 0.4180658 -0.5480741
v -0.5645477 0.462872 -0.4077495
v -0.568114 0.4027288 -0.4603816
v -0.57716 0.4842682 -0.5529443
v -0.5735937 0.5444112 -0.5003124
v -0.5981045 0.8240914 -0.7408313
v -0.6965944 0.8258979 -0.7358855
v -0.7053112 0.6951041 -0.8616925
v -0.6068214 0.6932976 -0.8666383
v -0.3061223 -1.807693 2.246751
v -0.3148392 -1.938487 2.120944
v -0.4133291 -1.936681 2.12589
v -0.4046122 -1.805887 2.251697
v 0.6180766 -0.8475602 1.00957
v 0.6090305 -0.7660213 0.917007
v 0.605464 -0.8261645 0.8643752
v 0.6145103 -0.9077034 0.9569383
v -0.4174649 -0.8628969 1.097262
v -0.4210312 -0.9230402 1.044631
v -0.4300772 -0.8415012 0.9520676
v -0.426511 -0.7813582 1.004699
v 0.4430631 0.8581746 -0.9218324
v 0.5229491 0.856709 -0.9258441
v 0.5106415 0.6720455 -1.103467
v 0.4307555 0.6735113 -1.099456
v 0.4411902 0.9136832 -0.9794112
v 0.4288825 0.7290196 -1.157035
v 0.5087684 0.7275541 -1.161046
v 0.5210762 0.9122174 -0.9834229
v 0.5365632 0.8376317 -0.8335267
v 0.4380733 0.8394382 -0.8285807
v 0.4293565 0.7086446 -0.954388
v 0.5278462 0.7068379 -0.9593338
v 0.8285446 -1.794154 2.154055
v 0.8198276 -1.924948 2.028248
v 0.7213378 -1.923141 2.033194
v 0.7300546 -1.792347 2.159001
v -0.6098457 0.7876601 -0.77557
v -0.6136839 0.7300696 -0.8309649
v -0.6935698 0.731535 -0.8269533
v -0.6897316 0.7891257 -0.7715584
v -0.6117189 0.8431687 -0.8331488
v -0.6916048 0.8446341 -0.8291372
v -0.695443 0.7870436 -0.8845321
v -0.6155571 0.785578 -0.8885437
vn 0.996325 0.01475574 -0.0843732
vn -0.996325 -0.01475574 0.0843732
vn 0.04457933 0.7517892 0.657895
vn -0.04457933 -0.7517892 -0.657895
vn 0.07313859 -0.6592385 0.7483686
vn -0.07313859 0.6592385 -0.7483686
vn 0.9963251 0.0147557 -0.08437196
vn -0.9963251 -0.0147557 0.08437196
vn 0.04457847 0.7517898 0.6578943
vn -0.04457847 -0.7517898 -0.6578943
vn 0.07313766 -0.6592377 0.7483692
vn -0.07313766 0.6592377 -0.7483692
vn 0.02341208 -0.693855 0.7197341
vn -0.02341208 0.693855 -0.7197341
vn 0.9985739 -0.0183213 -0.05014529
vn -0.9985739 0.0183213 0.05014529
vn 0.04798012 0.7198816 0.6924366
vn -0.04798012 -0.7198816 -0.6924366
vn 0.9963251 0.01475693 -0.08437177
vn -0.9963251 -0.01475693 0.08437177
vn 0.04457766 0.7517876 0.6578968
vn -0.04457766 -0.7517876 -0.6578968
vn 0.07313817 -0.6592402 0.748367
vn -0.07313817 0.6592402 -0.748367
vn 0.02341472 -0.693855 0.719734
vn -0.02341472 0.693855 -0.719734
vn 0.04797655 0.7198817 0.6924367
vn -0.04797655 -0.7198817 -0.6924367
vn -0.998574 0.01831713 0.05014463
vn 0.998574 -0.01831713 -0.05014463
vn 0.9963251 0.01475622 -0.08437189
vn -0.9963251 -0.01475622 0.08437189
vn 0.04457841 0.7517864 0.6578981
vn -0.04457841 -0.7517864 -0.6578981
vn 0.07313773 -0.6592416 0.7483659
vn -0.07313773 0.6592416 -0.7483659
vn -0.02341521 0.6938543 -0.7197346
vn 0.02341521 -0.6938543 0.7197346
vn 0.04681868 0.7518179 0.6577066
vn -0.04681895 -0.7518179 -0.6577066
vn 0.9963249 0.01475609 -0.08437381
vn -0.9963249 -0.01475613 0.08437378
vn 0.9963251 0.01475625 -0.08437149
vn -0.9963251 -0.01475625 0.08437149
vn 0.04457787 0.7517887 0.6578956
vn -0.04457787 -0.7517887 -0.6578956
vn 0.07313759 -0.659239 0.7483681
vn -0.07313759 0.659239 -0.7483681
vn 0.02341156 -0.693855 0.7197342
vn -0.02341156 0.693855 -0.7197342
vn 0.04797955 0.7198818 0.6924364
vn -0.04797955 -0.7198818 -0.6924364
vn -0.998574 0.01832142 0.05014468
vn 0.998574 -0.01832142 -0.05014468
vn -0.023415 0.6938545 -0.7197345
vn 0.023415 -0.6938545 0.7197345
vn 0.04681858 0.7518177 0.6577068
vn -0.04681884 -0.7518177 -0.6577067
vn 0.9963249 0.01475603 -0.08437359
vn -0.9963249 -0.01475608 0.08437356
vn 0.02341507 -0.6938552 0.7197338
vn -0.02341507 0.6938552 -0.7197338
vn 0.998574 -0.01831727 -0.05014527
vn -0.998574 0.01831727 0.05014527
vn 0.04797715 0.7198815 0.6924369
vn -0.04797715 -0.7198815 -0.6924369
vt 0.03399052 0.2845721
vt 0.029861 0.296231
vt 0.02232003 0.2935601
vt 0.02644957 0.2819011
vt -0.03399054 0.2845721
vt -0.02644957 0.2819012
vt -0.02232004 0.2935601
vt -0.029861 0.2962311
vt 0.1333492 0.3052258
vt 0.1803207 0.2125091
vt 0.1913542 0.2180988
vt 0.1443827 0.3108155
vt -0.1333492 0.3052258
vt -0.1443827 0.3108155
vt -0.1913542 0.2180988
vt -0.1803207 0.2125091
vt 0.08760741 0.2311206
vt 0.07973318 0.2297076
vt 0.09809028 0.1274055
vt 0.1059645 0.1288185
vt -0.08760743 0.2311206
vt -0.1059645 0.1288185
vt -0.09809028 0.1274055
vt -0.07973318 0.2297076
vt 0.0823143 0.14814
vt 0.07818478 0.1597989
vt 0.07064381 0.1571279
vt 0.07477335 0.145469
vt -0.08231431 0.14814
vt -0.07477333 0.145469
vt -0.07064383 0.157128
vt -0.07818478 0.1597989
vt 0.004235567 0.239815
vt 0.05120718 0.1470983
vt 0.06224068 0.152688
vt 0.01526908 0.2454046
vt -0.00423557 0.2398149
vt -0.01526908 0.2454046
vt -0.06224067 0.152688
vt -0.05120718 0.1470982
vt 0.08760758 0.2311203
vt 0.07973335 0.2297074
vt 0.0980904 0.1274052
vt 0.1059647 0.1288182
vt -0.08760758 0.2311203
vt -0.1059646 0.1288182
vt -0.0980904 0.1274053
vt -0.07973333 0.2297074
vt 0.07348433 0.213839
vt 0.06558414 0.2125793
vt 0.06684385 0.204679
vt 0.07474405 0.2059388
vt -0.07348432 0.213839
vt -0.07474404 0.2059388
vt -0.06684385 0.2046791
vt -0.06558414 0.2125793
vt -0.01865384 0.4658493
vt -0.02078703 0.4735597
vt -0.02849738 0.4714265
vt -0.02636418 0.4637161
vt 0.01865384 0.4658493
vt 0.02636419 0.4637161
vt 0.02849739 0.4714265
vt 0.02078704 0.4735597
vt 0.2936401 0.3996153
vt 0.2976348 0.392684
vt 0.3045661 0.3966788
vt 0.3005713 0.4036101
vt -0.2936401 0.3996153
vt -0.3005713 0.4036101
vt -0.3045661 0.3966788
vt -0.2976348 0.392684
vt 0.01183294 0.3471323
vt 0.007703476 0.3587913
vt 0.0001624892 0.3561203
vt 0.004291976 0.3444614
vt -0.01183295 0.3471324
vt -0.004291959 0.3444614
vt -0.0001625062 0.3561203
vt -0.007703471 0.3587913
vt 0.1925537 0.33522
vt 0.2395253 0.2425033
vt 0.2505588 0.248093
vt 0.2035872 0.3408097
vt -0.1925537 0.33522
vt -0.2035872 0.3408097
vt -0.2505588 0.248093
vt -0.2395253 0.2425033
vt 0.08760709 0.2311204
vt 0.07973285 0.2297074
vt 0.09808962 0.1274052
vt 0.1059639 0.1288182
vt -0.08760709 0.2311203
vt -0.1059639 0.1288182
vt -0.09808963 0.1274052
vt -0.07973282 0.2297074
vt 0.09265448 0.09361389
vt 0.09139477 0.1015141
vt 0.06606287 0.0974749
vt 0.06732256 0.08957469
vt -0.09265447 0.09361389
vt -0.06732257 0.0895747
vt -0.06606289 0.09747491
vt -0.09139477 0.1015141
vt 0.3570713 0.2956559
vt 0.3640025 0.2996507
vt 0.3600078 0.3065819
vt 0.3530765 0.3025872
vt -0.3570713 0.2956559
vt -0.3530765 0.3025872
vt -0.3600078 0.3065819
vt -0.3640025 0.2996507
vt 0.01946428 0.4687842
vt 0.04418747 0.4619442
vt 0.04632062 0.4696546
vt 0.02159745 0.4764945
vt -0.0194643 0.4687842
vt -0.02159745 0.4764946
vt -0.04632061 0.4696546
vt -0.04418748 0.4619442
vt -0.01032554 0.4096929
vt -0.01445499 0.4213518
vt -0.02199596 0.4186808
vt -0.01786649 0.4070219
vt 0.01032551 0.4096929
vt 0.01786652 0.4070219
vt 0.02199596 0.4186809
vt 0.01445499 0.4213518
vt 0.2517582 0.365214
vt 0.2987299 0.2724973
vt 0.3097634 0.278087
vt 0.2627918 0.3708037
vt -0.2517582 0.3652139
vt -0.2627918 0.3708037
vt -0.3097634 0.278087
vt -0.2987299 0.2724973
vt 0.08760658 0.2311201
vt 0.07973234 0.2297072
vt 0.09808908 0.127405
vt 0.1059634 0.1288179
vt -0.08760657 0.2311201
vt -0.1059633 0.1288179
vt -0.09808909 0.127405
vt -0.07973233 0.2297072
vt -0.09626938 0.1032349
vt -0.09782241 0.09349491
vt -0.0798803 0.090634
vt -0.07832726 0.100374
vt 0.1118577 0.1249564
vt 0.09391563 0.1220955
vt 0.09546869 0.1123555
vt 0.1134108 0.1152164
vt 0.3425136 0.2944258
vt -0.01357793 0.113952
vt -0.008705528 0.1053765
vt 0.3473859 0.2858503
vt -0.3432589 0.2948492
vt -0.3481313 0.2862737
vt 0.007960181 0.1057999
vt 0.01283258 0.1143754
vt -0.02188044 0.4575676
vt -0.03927353 0.4523155
vt 0.0940112 0.07600828
vt 0.1114043 0.08126038
vt 0.02201623 0.4580174
vt -0.1112685 0.08171017
vt -0.09387538 0.07645807
vt 0.03940932 0.4527653
vt 0.0568173 0.2201264
vt 0.05268782 0.2317853
vt 0.04514684 0.2291144
vt 0.04927634 0.2174555
vt -0.05681731 0.2201264
vt -0.04927633 0.2174555
vt -0.04514686 0.2291144
vt -0.05268781 0.2317853
vt 0.07236062 0.2743282
vt 0.1193323 0.1816116
vt 0.1303657 0.1872013
vt 0.08339412 0.279918
vt -0.07236061 0.2743282
vt -0.08339413 0.279918
vt -0.1303658 0.1872013
vt -0.1193323 0.1816116
vt 0.0876075 0.2311203
vt 0.07973326 0.2297073
vt 0.09809017 0.1274051
vt 0.1059644 0.1288181
vt -0.0876075 0.2311203
vt -0.1059644 0.1288181
vt -0.09809017 0.1274051
vt -0.07973325 0.2297073
vt 0.07474411 0.2059385
vt 0.0734844 0.2138387
vt 0.0481525 0.2097995
vt 0.04941222 0.2018993
vt -0.07474412 0.2059385
vt -0.04941221 0.2018993
vt -0.04815251 0.2097995
vt -0.07348439 0.2138387
vt 0.304566 0.3966788
vt 0.3114973 0.4006736
vt 0.3075025 0.4076048
vt 0.3005713 0.4036101
vt -0.304566 0.3966788
vt -0.3005713 0.4036101
vt -0.3075025 0.4076048
vt -0.3114973 0.4006736
vt 0.02078673 0.4735597
vt 0.04550988 0.4667197
vt 0.04764307 0.47443
vt 0.02291991 0.4812701
vt -0.02078672 0.4735597
vt -0.02291992 0.4812701
vt -0.04764305 0.47443
vt -0.04550987 0.4667197
vt -0.07835872 0.2155608
vt -0.07991178 0.2058208
vt -0.06196968 0.2029599
vt -0.06041662 0.2126999
vt 0.09394708 0.2372824
vt 0.07600497 0.2344214
vt 0.07755803 0.2246814
vt 0.09550016 0.2275423
vt 0.2906258 0.3957672
vt -0.06546561 0.2152933
vt -0.06059322 0.2067178
vt 0.2954982 0.3871917
vt -0.2913712 0.3961906
vt -0.2962435 0.3876151
vt 0.05984787 0.2071413
vt 0.06472027 0.2157168
vt -0.02174457 0.4571179
vt -0.03913766 0.4518659
vt 0.09414688 0.07555859
vt 0.11154 0.08081068
vt 0.02188034 0.4575677
vt -0.1114042 0.08126045
vt -0.09401105 0.07600836
vt 0.03927344 0.4523156
vt 0.09139464 0.1015142
vt 0.08349444 0.1002546
vt 0.08475413 0.09235434
vt 0.09265435 0.09361405
vt -0.09139465 0.1015142
vt -0.09265433 0.09361405
vt -0.08475415 0.09235435
vt -0.08349444 0.1002546
vt -0.0173316 0.4610738
vt -0.01946476 0.4687842
vt -0.02717512 0.466651
vt -0.02504195 0.4589406
vt 0.01733159 0.4610738
vt 0.02504195 0.4589406
vt 0.02717512 0.466651
vt 0.01946476 0.4687842
vt 0.3461453 0.2985924
vt 0.3501401 0.2916612
vt 0.3570713 0.2956559
vt 0.3530766 0.3025872
vt -0.3461453 0.2985924
vt -0.3530766 0.3025872
vt -0.3570713 0.2956559
vt -0.3501401 0.2916612
o group1095350313
g mesh1095350313
usemtl mat20
f 4/4/1 3/3/1 2/2/1 1/1/1
f 8/8/2 7/7/2 6/6/2 5/5/2
f 2/12/3 8/11/3 5/10/3 1/9/3
f 6/16/4 7/15/4 3/14/4 4/13/4
f 5/20/5 6/19/5 4/18/5 1/17/5
f 3/24/6 7/23/6 8/22/6 2/21/6
o group371036787
g mesh371036787
usemtl mat20
f 12/28/7 11/27/7 10/26/7 9/25/7
f 16/32/8 15/31/8 14/30/8 13/29/8
f 10/36/9 16/35/9 13/34/9 9/33/9
f 14/40/10 15/39/10 11/38/10 12/37/10
f 13/44/11 14/43/11 12/42/11 9/41/11
f 11/48/12 15/47/12 16/46/12 10/45/12
o group979896943
g mesh979896943
usemtl mat15
f 20/52/13 19/51/13 18/50/13 17/49/13
f 24/56/14 23/55/14 22/54/14 21/53/14
f 18/60/15 24/59/15 21/58/15 17/57/15
f 22/64/16 23/63/16 19/62/16 20/61/16
f 21/68/17 22/67/17 20/66/17 17/65/17
f 19/72/18 23/71/18 24/70/18 18/69/18
o group1277764583
g mesh1277764583
usemtl mat20
f 28/76/19 27/75/19 26/74/19 25/73/19
f 32/80/20 31/79/20 30/78/20 29/77/20
f 26/84/21 32/83/21 29/82/21 25/81/21
f 30/88/22 31/87/22 27/86/22 28/85/22
f 29/92/23 30/91/23 28/90/23 25/89/23
f 27/96/24 31/95/24 32/94/24 26/93/24
o group1614764345
g mesh1614764345
usemtl mat15
f 36/100/25 35/99/25 34/98/25 33/97/25
f 40/104/26 39/103/26 38/102/26 37/101/26
f 34/108/27 40/107/27 37/106/27 33/105/27
f 38/112/28 39/111/28 35/110/28 36/109/28
f 37/116/29 38/115/29 36/114/29 33/113/29
f 35/120/30 39/119/30 40/118/30 34/117/30
o group956490401
g mesh956490401
usemtl mat20
f 44/124/31 43/123/31 42/122/31 41/121/31
f 48/128/32 47/127/32 46/126/32 45/125/32
f 42/132/33 48/131/33 45/130/33 41/129/33
f 46/136/34 47/135/34 43/134/34 44/133/34
f 45/140/35 46/139/35 44/138/35 41/137/35
f 43/144/36 47/143/36 48/142/36 42/141/36
o group402200211
g mesh402200211
usemtl mat20
f 52/148/37 51/147/37 50/146/37 49/145/37
f 56/152/38 55/151/38 54/150/38 53/149/38
f 50/156/39 56/155/39 53/154/39 49/153/39
f 54/160/40 55/159/40 51/158/40 52/157/40
f 53/164/41 54/163/41 52/162/41 49/161/41
f 51/168/42 55/167/42 56/166/42 50/165/42
o group405798310
g mesh405798310
usemtl mat20
f 60/172/43 59/171/43 58/170/43 57/169/43
f 64/176/44 63/175/44 62/174/44 61/173/44
f 58/180/45 64/179/45 61/178/45 57/177/45
f 62/184/46 63/183/46 59/182/46 60/181/46
f 61/188/47 62/187/47 60/186/47 57/185/47
f 59/192/48 63/191/48 64/190/48 58/189/48
o group431764845
g mesh431764845
usemtl mat15
f 68/196/49 67/195/49 66/194/49 65/193/49
f 72/200/50 71/199/50 70/198/50 69/197/50
f 66/204/51 72/203/51 69/202/51 65/201/51
f 70/208/52 71/207/52 67/206/52 68/205/52
f 69/212/53 70/211/53 68/210/53 65/209/53
f 67/216/54 71/215/54 72/214/54 66/213/54
o group1506858106
g mesh1506858106
usemtl mat20
f 76/220/55 75/219/55 74/218/55 73/217/55
f 80/224/56 79/223/56 78/222/56 77/221/56
f 74/228/57 80/227/57 77/226/57 73/225/57
f 78/232/58 79/231/58 75/230/58 76/229/58
f 77/236/59 78/235/59 76/234/59 73/233/59
f 75/240/60 79/239/60 80/238/60 74/237/60
o group731223281
g mesh731223281
usemtl mat15
f 84/244/61 83/243/61 82/242/61 81/241/61
f 88/248/62 87/247/62 86/246/62 85/245/62
f 82/252/63 88/251/63 85/250/63 81/249/63
f 86/256/64 87/255/64 83/254/64 84/253/64
f 85/260/65 86/259/65 84/258/65 81/257/65
f 83/264/66 87/263/66 88/262/66 82/261/66
